<svg width="80" height="70" viewBox="0 0 80 70" fill="none" xmlns="http://www.w3.org/2000/svg">
<g clip-path="url(#clip0_184_2)">
<path d="M71.09 20.7402C70.93 20.5702 70.76 20.4002 70.59 20.2402C70.42 20.0802 70.26 19.9002 70.09 19.7402C69.92 19.5802 69.76 19.4002 69.59 19.2402C69.42 19.0802 69.26 18.9002 69.09 18.7402C68.92 18.5802 68.76 18.4002 68.59 18.2402C68.42 18.0802 68.26 17.9002 68.09 17.7402C67.92 17.5802 67.76 17.4002 67.59 17.2402C72.5501 22.115 75.3917 28.7465 75.5 35.7002C75.5 52.2702 58.68 65.7502 38 65.7502C26.42 65.7502 16.06 61.5202 9.16998 54.8902L9.66998 55.3902L10.17 55.8902L10.67 56.3902L11.17 56.8902L11.67 57.3902L12.17 57.8902L12.67 58.3902C19.55 65.3002 30.14 69.7502 42 69.7502C62.68 69.7502 79.5 56.2702 79.5 39.7502C79.5 32.6902 76.46 26.0002 71.09 20.7402Z" fill="black"/>
<path d="M73 35.7C73 50.91 57.33 63.24 38 63.24C18.67 63.24 3 50.91 3 35.7C3 26.27 9 17.94 18.22 13C27.44 8.06 33.18 3 38 3C42.82 3 46.94 7.13 57.78 13C67 17.94 73 26.27 73 35.7Z" fill="#FBF0DF"/>
<path d="M73 35.6999C72.9951 33.746 72.726 31.8017 72.2 29.9199C69.47 63.2199 28.85 64.8199 12.88 54.8599C20.059 60.4243 28.9181 63.3797 38 63.2399C57.3 63.2399 73 50.8899 73 35.6999Z" fill="#F6DECE"/>
<path d="M24.53 11.17C29 8.49 34.94 3.46 40.78 3.45C39.8816 3.1596 38.9442 3.00786 38 3C35.58 3 33 4.25 29.75 6.13C28.62 6.79 27.45 7.52 26.21 8.28C23.88 9.72 21.21 11.35 18.21 12.98C8.69 18.13 3 26.62 3 35.7C3 36.1 3 36.5 3 36.89C9.06 15.48 20.07 13.85 24.53 11.17Z" fill="#FFFEFC"/>
<path fill-rule="evenodd" clip-rule="evenodd" d="M35.12 5.53004C35.134 7.89126 34.6383 10.2277 33.6666 12.3798C32.695 14.5319 31.2704 16.4489 29.49 18C29.21 18.25 29.43 18.73 29.79 18.59C33.16 17.28 37.71 13.36 35.79 5.45004C35.71 5.00004 35.12 5.12004 35.12 5.53004ZM37.39 5.53004C38.6136 7.52647 39.391 9.76388 39.6689 12.0889C39.9468 14.4139 39.7186 16.7715 39 19C38.88 19.35 39.31 19.65 39.55 19.36C41.74 16.56 43.65 11 37.93 5.00004C37.64 4.74004 37.19 5.14004 37.39 5.49004V5.53004ZM40.15 5.36004C42.0661 6.71659 43.6691 8.46827 44.8508 10.4969C46.0324 12.5256 46.7653 14.7841 47 17.12C46.9899 17.2042 47.0125 17.2891 47.0633 17.357C47.114 17.4249 47.189 17.4707 47.2726 17.4848C47.3562 17.499 47.442 17.4804 47.5123 17.433C47.5826 17.3855 47.6319 17.3129 47.65 17.23C48.57 13.74 48.05 7.79004 40.48 4.70004C40.08 4.54004 39.82 5.08004 40.15 5.32004V5.36004ZM21.69 15.76C23.9693 15.0791 26.0796 13.9258 27.8835 12.3751C29.6875 10.8244 31.1446 8.91123 32.16 6.76004C32.34 6.40004 32.91 6.54004 32.82 6.94004C31.09 14.94 25.3 16.61 21.7 16.39C21.32 16.4 21.33 15.87 21.69 15.76Z" fill="#CCBEA7"/>
<path d="M38 65.75C17.32 65.75 0.5 52.27 0.5 35.7C0.5 25.7 6.68 16.37 17.03 10.78C20.03 9.18 22.6 7.57 24.89 6.16C26.15 5.38 27.34 4.65 28.49 3.97C32 1.89 35 0.5 38 0.5C41 0.5 43.62 1.7 46.9 3.64C47.9 4.21 48.9 4.83 49.97 5.51C52.46 7.05 55.27 8.79 58.97 10.78C69.32 16.37 75.5 25.69 75.5 35.7C75.5 52.27 58.68 65.75 38 65.75ZM38 3C35.58 3 33 4.25 29.75 6.13C28.62 6.79 27.45 7.52 26.21 8.28C23.88 9.72 21.21 11.35 18.21 12.98C8.69 18.13 3 26.62 3 35.7C3 50.89 18.7 63.25 38 63.25C57.3 63.25 73 50.89 73 35.7C73 26.62 67.31 18.13 57.78 13C54 11 51.05 9.12 48.66 7.64C47.57 6.97 46.57 6.35 45.66 5.8C42.63 4 40.42 3 38 3Z" fill="black"/>
<path d="M45.05 43.0003C44.6008 44.8402 43.5782 46.4896 42.13 47.7103C41.0428 48.7642 39.6353 49.4257 38.13 49.5903C36.5795 49.4518 35.1226 48.7886 34 47.7103C32.5666 46.4839 31.5584 44.835 31.12 43.0003C31.1055 42.8913 31.1161 42.7805 31.151 42.6763C31.1859 42.5721 31.2442 42.4773 31.3214 42.3991C31.3986 42.3209 31.4927 42.2615 31.5965 42.2253C31.7002 42.1891 31.8109 42.1771 31.92 42.1903H44.26C44.3683 42.1787 44.4778 42.1919 44.5803 42.2289C44.6828 42.2658 44.7755 42.3255 44.8516 42.4035C44.9277 42.4815 44.985 42.5757 45.0194 42.6791C45.0538 42.7824 45.0642 42.8923 45.05 43.0003Z" fill="#B71422"/>
<path d="M34 47.7902C35.1203 48.8691 36.5719 49.5386 38.12 49.6902C39.6645 49.5364 41.1123 48.8671 42.23 47.7902C42.5875 47.4569 42.9216 47.0994 43.23 46.7202C42.614 46.0213 41.8615 45.4558 41.0188 45.0586C40.1761 44.6613 39.2611 44.4407 38.33 44.4102C37.3337 44.4338 36.3581 44.6991 35.4871 45.1834C34.6161 45.6677 33.8758 46.3563 33.33 47.1902C33.56 47.4002 33.76 47.6002 34 47.7902Z" fill="#FF6164"/>
<path d="M34.16 47.0002C34.6558 46.3593 35.2904 45.8392 36.0161 45.4789C36.7418 45.1187 37.5398 44.9276 38.35 44.9202C39.8475 44.9643 41.2744 45.5672 42.35 46.6102C42.58 46.3602 42.8 46.1002 43.01 45.8402C41.7378 44.6286 40.0565 43.9397 38.3 43.9102C37.3612 43.9183 36.4359 44.1341 35.5905 44.5421C34.745 44.9501 34.0004 45.5403 33.41 46.2702C33.6464 46.527 33.8968 46.7707 34.16 47.0002Z" fill="black"/>
<path d="M38.09 50.1901C36.4236 50.0441 34.8555 49.3393 33.64 48.1901C32.092 46.8808 31.0025 45.1116 30.53 43.1401C30.4961 42.9646 30.5019 42.7837 30.5469 42.6107C30.5918 42.4377 30.6749 42.2769 30.79 42.1401C30.927 41.9746 31.1001 41.8426 31.2959 41.7542C31.4918 41.6658 31.7052 41.6234 31.92 41.6301H44.26C44.4744 41.6256 44.6872 41.669 44.8827 41.7572C45.0782 41.8455 45.2515 41.9763 45.39 42.1401C45.504 42.2774 45.5856 42.4385 45.6289 42.6116C45.6722 42.7847 45.676 42.9653 45.64 43.1401C45.1675 45.1116 44.0779 46.8808 42.53 48.1901C41.3171 49.3372 39.7528 50.0419 38.09 50.1901ZM31.92 42.7901C31.76 42.7901 31.72 42.8601 31.71 42.8801C32.1327 44.5898 33.0889 46.1204 34.44 47.2501C35.428 48.2234 36.7125 48.8393 38.09 49.0001C39.464 48.8411 40.747 48.233 41.74 47.2701C43.0869 46.1385 44.0393 44.6082 44.46 42.9001C44.4382 42.8681 44.408 42.8428 44.3727 42.8269C44.3374 42.811 44.2984 42.8052 44.26 42.8101L31.92 42.7901Z" fill="black"/>
<path d="M53.22 43.6197C56.4508 43.6197 59.07 42.0796 59.07 40.1797C59.07 38.2799 56.4508 36.7397 53.22 36.7397C49.9891 36.7397 47.37 38.2799 47.37 40.1797C47.37 42.0796 49.9891 43.6197 53.22 43.6197Z" fill="#FEBBD0"/>
<path d="M22.95 43.6197C26.1808 43.6197 28.8 42.0796 28.8 40.1797C28.8 38.2799 26.1808 36.7397 22.95 36.7397C19.7191 36.7397 17.1 38.2799 17.1 40.1797C17.1 42.0796 19.7191 43.6197 22.95 43.6197Z" fill="#FEBBD0"/>
<path fill-rule="evenodd" clip-rule="evenodd" d="M25.7 38.7998C26.7902 38.8018 27.8565 38.4803 28.7639 37.876C29.6713 37.2718 30.3791 36.4119 30.7977 35.4053C31.2163 34.3987 31.3268 33.2905 31.1153 32.221C30.9039 31.1515 30.3799 30.1688 29.6097 29.3972C28.8395 28.6256 27.8577 28.0998 26.7886 27.8864C25.7195 27.673 24.6111 27.7815 23.6037 28.1983C22.5963 28.615 21.7352 29.3212 21.1293 30.2276C20.5234 31.1339 20.2 32.1996 20.2 33.2898C20.2 34.7494 20.7791 36.1494 21.8103 37.1824C22.8414 38.2154 24.2404 38.7971 25.7 38.7998ZM50.47 38.7998C51.5614 38.8077 52.6306 38.4913 53.542 37.8907C54.4534 37.2901 55.1658 36.4323 55.589 35.4262C56.0122 34.4201 56.127 33.311 55.9189 32.2396C55.7109 31.1681 55.1893 30.1826 54.4203 29.408C53.6513 28.6334 52.6696 28.1046 51.5997 27.8888C50.5298 27.6729 49.4199 27.7797 48.4107 28.1955C47.4016 28.6113 46.5387 29.3175 45.9314 30.2245C45.3242 31.1314 45 32.1983 45 33.2898C44.9973 34.745 45.5715 36.142 46.5967 37.1748C47.622 38.2075 49.0148 38.7918 50.47 38.7998Z" fill="black"/>
<path fill-rule="evenodd" clip-rule="evenodd" d="M24 33.64C24.4098 33.642 24.811 33.5222 25.1527 33.296C25.4944 33.0697 25.7613 32.7472 25.9195 32.3691C26.0777 31.991 26.1201 31.5745 26.0414 31.1723C25.9627 30.7701 25.7663 30.4003 25.4772 30.1098C25.1881 29.8193 24.8193 29.6212 24.4175 29.5405C24.0157 29.4598 23.599 29.5002 23.2201 29.6566C22.8413 29.813 22.5174 30.0783 22.2895 30.4189C22.0616 30.7595 21.94 31.1601 21.94 31.57C21.94 32.1172 22.1567 32.6422 22.5427 33.0302C22.9288 33.4181 23.4527 33.6373 24 33.64ZM48.77 33.64C49.1798 33.642 49.581 33.5222 49.9227 33.296C50.2644 33.0697 50.5313 32.7472 50.6895 32.3691C50.8477 31.991 50.8901 31.5745 50.8114 31.1723C50.7327 30.7701 50.5363 30.4003 50.2472 30.1098C49.9581 29.8193 49.5893 29.6212 49.1875 29.5405C48.7857 29.4598 48.369 29.5002 47.9901 29.6566C47.6113 29.813 47.2874 30.0783 47.0595 30.4189C46.8316 30.7595 46.71 31.1601 46.71 31.57C46.7099 32.1138 46.9239 32.6358 47.3056 33.0232C47.6874 33.4105 48.2062 33.6321 48.75 33.64H48.77Z" fill="white"/>
</g>
<defs>
<clipPath id="clip0_184_2">
<rect width="80" height="70" fill="white"/>
</clipPath>
</defs>
</svg>
