<svg width="257" height="257" viewBox="0 0 257 257" fill="none" xmlns="http://www.w3.org/2000/svg">
<g clip-path="url(#clip0_186_33)">
<path d="M196.5 0.0727539H60.4998C27.3627 0.0727539 0.499817 26.9357 0.499817 60.0728V196.073C0.499817 229.21 27.3627 256.073 60.4998 256.073H196.5C229.637 256.073 256.5 229.21 256.5 196.073V60.0728C256.5 26.9357 229.637 0.0727539 196.5 0.0727539Z" fill="#242938"/>
<path d="M128.501 30.0728C73.2789 30.0728 28.4998 74.8436 28.4998 130.074C28.4998 174.257 57.1531 211.741 96.8865 224.964C101.884 225.89 103.719 222.795 103.719 220.154C103.719 217.769 103.626 209.892 103.583 201.536C75.7629 207.585 69.8925 189.737 69.8925 189.737C65.3435 178.178 58.7892 175.105 58.7892 175.105C49.7161 168.898 59.4731 169.026 59.4731 169.026C69.5149 169.731 74.8024 179.331 74.8024 179.331C83.7215 194.619 98.1963 190.199 103.903 187.644C104.801 181.18 107.392 176.769 110.252 174.272C88.0403 171.743 64.6911 163.168 64.6911 124.851C64.6911 113.933 68.5975 105.012 74.9945 98.009C73.9562 95.4903 70.5333 85.3193 75.9633 71.545C75.9633 71.545 84.3607 68.8573 103.471 81.7954C111.448 79.5797 120.002 78.4686 128.501 78.4305C136.999 78.4686 145.561 79.5797 153.552 81.7954C172.639 68.8573 181.025 71.545 181.025 71.545C186.468 85.3193 183.044 95.4903 182.005 98.009C188.417 105.012 192.297 113.933 192.297 124.851C192.297 163.26 168.903 171.717 146.635 174.192C150.222 177.296 153.418 183.381 153.418 192.711C153.418 206.091 153.302 216.86 153.302 220.154C153.302 222.815 155.102 225.933 160.171 224.951C199.883 211.713 228.5 174.242 228.5 130.074C228.5 74.8436 183.727 30.0728 128.501 30.0728ZM65.9534 172.526C65.7331 173.023 64.9515 173.172 64.2394 172.831C63.5141 172.505 63.1067 171.827 63.3419 171.329C63.5572 170.817 64.3404 170.675 65.0641 171.018C65.7911 171.344 66.2051 172.028 65.9534 172.526ZM70.8723 176.915C70.3954 177.358 69.4631 177.152 68.8305 176.453C68.1764 175.756 68.0538 174.824 68.5374 174.375C69.0292 173.933 69.9334 174.14 70.5891 174.837C71.2432 175.543 71.3707 176.468 70.8723 176.915ZM74.2469 182.531C73.6342 182.957 72.6323 182.558 72.013 181.668C71.4002 180.779 71.4002 179.713 72.0262 179.285C72.6472 178.858 73.6342 179.242 74.2618 180.125C74.8728 181.029 74.8728 182.096 74.2469 182.531ZM79.954 189.035C79.4059 189.639 78.2384 189.477 77.3839 188.652C76.5096 187.846 76.2661 186.702 76.8159 186.097C77.3707 185.491 78.5448 185.662 79.4059 186.48C80.2736 187.284 80.5385 188.437 79.954 189.035ZM87.3299 191.23C87.0881 192.014 85.9637 192.37 84.831 192.037C83.7 191.694 82.9598 190.777 83.1883 189.985C83.4235 189.197 84.5528 188.826 85.6938 189.182C86.8232 189.523 87.565 190.434 87.3299 191.23ZM95.724 192.162C95.7521 192.986 94.7917 193.67 93.6027 193.685C92.4071 193.712 91.44 193.044 91.4267 192.233C91.4267 191.4 92.3657 190.723 93.5613 190.703C94.7503 190.68 95.724 191.342 95.724 192.162ZM103.97 191.846C104.113 192.65 103.287 193.477 102.106 193.697C100.945 193.909 99.87 193.412 99.7227 192.614C99.5786 191.789 100.42 190.963 101.579 190.749C102.762 190.544 103.82 191.028 103.97 191.846Z" fill="white"/>
</g>
<defs>
<clipPath id="clip0_186_33">
<rect width="256" height="256" fill="white" transform="translate(0.499817 0.0727539)"/>
</clipPath>
</defs>
</svg>
