<svg width="25" height="25" viewBox="0 0 25 25" fill="none" xmlns="http://www.w3.org/2000/svg">
<g clip-path="url(#clip0_186_45)">
<path d="M1.37438 7.18408H23.7944C24.2304 7.18408 24.5844 7.53908 24.5844 7.97608V16.1521C24.5844 16.5881 24.2304 16.9421 23.7944 16.9421H1.37438C1.16486 16.9421 0.963921 16.8588 0.815767 16.7107C0.667614 16.5625 0.584382 16.3616 0.584382 16.1521V7.97608C0.58425 7.87225 0.604587 7.76942 0.64423 7.67346C0.683872 7.57749 0.742042 7.49029 0.815414 7.41682C0.888785 7.34336 0.975918 7.28508 1.07183 7.24531C1.16774 7.20555 1.27055 7.18408 1.37438 7.18408ZM3.88138 14.7891V11.6671L5.77138 13.5571L7.70438 11.6241V14.7461H8.75938V9.07608L5.76938 12.0661L2.82438 9.12008V14.7901H3.87938L3.88138 14.7891ZM12.3214 12.9441L10.8474 11.4711L10.1014 12.2171L12.8484 14.9641L15.5934 12.2171L14.8474 11.4711L13.3744 12.9441V8.94408H12.3204V12.9441H12.3214ZM22.3624 13.9311L20.1874 11.7561L22.4074 9.53608L21.6614 8.79008L19.4414 11.0101L17.2214 8.79008L16.4744 9.53608L18.6944 11.7561L16.5184 13.9331L17.2644 14.6791L19.4414 12.5021L21.6174 14.6771L22.3624 13.9311Z" fill="#FCB32C"/>
</g>
<defs>
<clipPath id="clip0_186_45">
<rect width="24" height="24" fill="white" transform="translate(0.584381 0.0639648)"/>
</clipPath>
</defs>
</svg>
